<svg width="32" height="32" viewBox="0 0 32 32" fill="none" xmlns="http://www.w3.org/2000/svg">
<path d="M27.6471 7.38281V10.0495H24.9805H27.6471" stroke="#3CB18D" stroke-width="2" stroke-linecap="round" stroke-linejoin="round"/>
<path d="M10.1152 14.3053C10.1152 13.224 10.9926 12.3467 12.0739 12.3467C13.1552 12.3467 14.0326 13.224 14.0326 14.3053C14.0326 16.7533 10.1166 16.7533 10.1166 19.652H14.0326" stroke="#3CB18D" stroke-width="2" stroke-linecap="round" stroke-linejoin="round"/>
<path d="M21.192 16.0401L17.8427 16.0041C17.6533 16.0015 17.5 15.8481 17.5 15.6575V12.3481" stroke="#3CB18D" stroke-width="2" stroke-linecap="round" stroke-linejoin="round"/>
<path d="M21.1862 12.4268V19.6534" stroke="#3CB18D" stroke-width="2" stroke-linecap="round" stroke-linejoin="round"/>
<path d="M27.0673 10.0508C24.93 6.18149 20.7766 3.55615 16.0006 3.55615C9.12731 3.55615 3.55664 9.12815 3.55664 16.0002C3.55664 22.8722 9.12731 28.4442 16.0006 28.4442C22.874 28.4442 28.4446 22.8722 28.4446 16.0002" stroke="#3CB18D" stroke-width="2" stroke-linecap="round" stroke-linejoin="round"/>
</svg>
