<svg width="32" height="32" viewBox="0 0 32 32" fill="none" xmlns="http://www.w3.org/2000/svg">
<path fill-rule="evenodd" clip-rule="evenodd" d="M23.7384 21.1223L22.435 19.819C21.7839 19.1679 20.7284 19.1679 20.0784 19.819L19.0539 20.8434C18.825 21.0723 18.4784 21.149 18.1828 21.019C16.6984 20.369 15.2317 19.3834 13.9239 18.0756C12.6217 16.7734 11.6395 15.3134 10.9884 13.8345C10.8528 13.529 10.9317 13.1701 11.1684 12.9334L12.0862 12.0156C12.8317 11.2701 12.8317 10.2156 12.1806 9.56452L10.8773 8.26118C10.0095 7.39341 8.60282 7.39341 7.73504 8.26118L7.0106 8.98452C6.18726 9.80785 5.84393 10.9956 6.06615 12.1734C6.61504 15.0767 8.30171 18.2556 11.0228 20.9767C13.7439 23.6979 16.9228 25.3845 19.8262 25.9334C21.0039 26.1556 22.1917 25.8123 23.015 24.989L23.7384 24.2656C24.6062 23.3979 24.6062 21.9912 23.7384 21.1223V21.1223Z" stroke="#3CB18D" stroke-width="2" stroke-linecap="round" stroke-linejoin="round"/>
<path d="M17.1113 10.4345C18.2569 10.4189 19.408 10.8434 20.2824 11.7178" stroke="#3CB18D" stroke-width="2" stroke-linecap="round" stroke-linejoin="round"/>
<path d="M23.4247 8.57552C21.6813 6.83218 19.3958 5.95996 17.1113 5.95996" stroke="#3CB18D" stroke-width="2" stroke-linecap="round" stroke-linejoin="round"/>
<path d="M21.5646 14.8889C21.5801 13.7433 21.1557 12.5922 20.2812 11.7178" stroke="#3CB18D" stroke-width="2" stroke-linecap="round" stroke-linejoin="round"/>
<path d="M23.4238 8.57568C25.1672 10.319 26.0394 12.6046 26.0394 14.889" stroke="#3CB18D" stroke-width="2" stroke-linecap="round" stroke-linejoin="round"/>
</svg>
