<svg width="32" height="32" viewBox="0 0 32 32" fill="none" xmlns="http://www.w3.org/2000/svg">
<rect width="32" height="32" rx="16" fill="#3CB18D"/>
<path fill-rule="evenodd" clip-rule="evenodd" d="M21.8038 19.8429L20.8263 18.8654C20.3379 18.3771 19.5463 18.3771 19.0588 18.8654L18.2904 19.6338C18.1188 19.8054 17.8588 19.8629 17.6371 19.7654C16.5238 19.2779 15.4238 18.5388 14.4429 17.5579C13.4663 16.5813 12.7296 15.4863 12.2413 14.3771C12.1396 14.1479 12.1988 13.8788 12.3763 13.7013L13.0646 13.0129C13.6238 12.4538 13.6238 11.6629 13.1354 11.1746L12.1579 10.1971C11.5071 9.54628 10.4521 9.54628 9.80128 10.1971L9.25795 10.7396C8.64045 11.3571 8.38295 12.2479 8.54961 13.1313C8.96128 15.3088 10.2263 17.6929 12.2671 19.7338C14.3079 21.7746 16.6921 23.0396 18.8696 23.4513C19.7529 23.6179 20.6438 23.3604 21.2613 22.7429L21.8038 22.2004C22.4546 21.5496 22.4546 20.4946 21.8038 19.8429V19.8429Z" stroke="white" stroke-width="1.5" stroke-linecap="round" stroke-linejoin="round"/>
<path d="M16.833 11.8265C17.6922 11.8148 18.5555 12.1331 19.2113 12.789" stroke="white" stroke-width="1.5" stroke-linecap="round" stroke-linejoin="round"/>
<path d="M21.568 10.4324C20.2605 9.12487 18.5463 8.4707 16.833 8.4707" stroke="white" stroke-width="1.5" stroke-linecap="round" stroke-linejoin="round"/>
<path d="M20.1734 15.1674C20.1851 14.3082 19.8668 13.4449 19.2109 12.7891" stroke="white" stroke-width="1.5" stroke-linecap="round" stroke-linejoin="round"/>
<path d="M21.5684 10.4316C22.8759 11.7391 23.53 13.4533 23.53 15.1666" stroke="white" stroke-width="1.5" stroke-linecap="round" stroke-linejoin="round"/>
</svg>
