<svg width="32" height="32" viewBox="0 0 32 32" fill="none" xmlns="http://www.w3.org/2000/svg">
<g clip-path="url(#clip0_2015_125742)">
<path d="M16 0C11.7575 0 7.685 1.68675 4.6875 4.68625C1.68691 7.68694 0.000831175 11.7565 0 16C0 20.2417 1.6875 24.3142 4.6875 27.3137C7.685 30.3132 11.7575 32 16 32C20.2425 32 24.315 30.3132 27.3125 27.3137C30.3125 24.3142 32 20.2417 32 16C32 11.7583 30.3125 7.68575 27.3125 4.68625C24.315 1.68675 20.2425 0 16 0Z" fill="url(#paint0_linear_2015_125742)"/>
<path d="M7.24213 15.8301C11.9071 13.7981 15.0171 12.4583 16.5721 11.8111C21.0171 9.96283 21.9396 9.64183 22.5421 9.63095C22.6746 9.62883 22.9696 9.66158 23.1621 9.8172C23.3221 9.94845 23.3671 10.126 23.3896 10.2506C23.4096 10.3751 23.4371 10.6588 23.4146 10.8803C23.1746 13.4103 22.1321 19.5498 21.6021 22.3836C21.3796 23.5826 20.9371 23.9846 20.5096 24.0238C19.5796 24.1093 18.8746 23.4098 17.9746 22.8201C16.5671 21.8968 15.7721 21.3223 14.4046 20.4216C12.8246 19.3806 13.8496 18.8083 14.7496 17.8733C14.9846 17.6286 19.0796 13.9048 19.1571 13.5671C19.1671 13.5248 19.1771 13.3673 19.0821 13.2843C18.9896 13.2011 18.8521 13.2296 18.7521 13.2521C18.6096 13.2841 16.3621 14.7711 12.0021 17.7128C11.3646 18.1513 10.7871 18.3651 10.2671 18.3538C9.69713 18.3416 8.59713 18.0308 7.77963 17.7653C6.77963 17.4396 5.98213 17.2673 6.05213 16.7141C6.08713 16.4261 6.48463 16.1313 7.24213 15.8301V15.8301Z" fill="white"/>
</g>
<defs>
<linearGradient id="paint0_linear_2015_125742" x1="16" y1="0" x2="16" y2="32" gradientUnits="userSpaceOnUse">
<stop stop-color="#2AABEE"/>
<stop offset="1" stop-color="#229ED9"/>
</linearGradient>
<clipPath id="clip0_2015_125742">
<rect width="32" height="32" fill="white"/>
</clipPath>
</defs>
</svg>
