<svg width="32" height="32" viewBox="0 0 32 32" fill="none" xmlns="http://www.w3.org/2000/svg">
<g clip-path="url(#clip0_2015_125735)">
<path d="M0.676439 15.809C0.675695 18.4977 1.37743 21.1229 2.71177 23.4368L0.548828 31.3428L8.63067 29.2214C10.866 30.4396 13.3705 31.078 15.9156 31.0781H15.9223C24.3242 31.0781 31.1635 24.2337 31.1671 15.8211C31.1687 11.7445 29.5843 7.91125 26.7058 5.02728C23.8277 2.14356 20 0.554595 15.9217 0.552734C7.51885 0.552734 0.680032 7.39677 0.676563 15.809" fill="url(#paint0_linear_2015_125735)"/>
<path d="M0.132566 15.8035C0.131699 18.5889 0.858584 21.308 2.2405 23.7048L0 31.8942L8.37163 29.6967C10.6783 30.9558 13.2753 31.6196 15.918 31.6206H15.9248C24.6281 31.6206 31.7131 24.53 31.7168 15.8162C31.7183 11.5932 30.077 7.62208 27.0956 4.63479C24.1138 1.64788 20.1492 0.00173643 15.9248 0C7.22003 0 0.136159 7.08961 0.13269 15.8035H0.132566ZM5.11805 23.292L4.80547 22.7953C3.49145 20.7036 2.79789 18.2865 2.79889 15.8045C2.80173 8.56174 8.68966 2.66915 15.9298 2.66915C19.436 2.67064 22.731 4.03895 25.2094 6.52155C27.6877 9.0044 29.0514 12.3049 29.0505 15.8152C29.0473 23.058 23.1592 28.9513 15.9248 28.9513H15.9196C13.564 28.9501 11.2538 28.3168 9.23901 27.12L8.75954 26.8353L3.79165 28.1393L5.11805 23.2919V23.292Z" fill="url(#paint1_linear_2015_125735)"/>
<path d="M11.9777 9.19759C11.6821 8.53986 11.371 8.52658 11.0899 8.51505C10.8597 8.50513 10.5966 8.50587 10.3337 8.50587C10.0705 8.50587 9.64296 8.60497 9.28156 9.00001C8.91979 9.39542 7.90039 10.351 7.90039 12.2944C7.90039 14.238 9.31439 16.1162 9.51151 16.38C9.70887 16.6433 12.2413 20.7591 16.2519 22.3425C19.5852 23.6584 20.2635 23.3967 20.9869 23.3307C21.7105 23.2649 23.3216 22.3754 23.6503 21.453C23.9792 20.5307 23.9792 19.7401 23.8806 19.5749C23.782 19.4103 23.5188 19.3115 23.1242 19.114C22.7295 18.9164 20.7896 17.9608 20.4279 17.8289C20.0661 17.6972 19.8031 17.6315 19.54 18.027C19.2768 18.4219 18.5212 19.3115 18.2909 19.5749C18.0608 19.839 17.8305 19.8718 17.436 19.6742C17.0411 19.476 15.7704 19.0594 14.2627 17.7138C13.0897 16.6667 12.2978 15.3737 12.0676 14.9782C11.8374 14.5833 12.0429 14.3692 12.2408 14.1724C12.4181 13.9954 12.6355 13.7111 12.833 13.4805C13.0297 13.2498 13.0954 13.0852 13.227 12.8218C13.3587 12.5581 13.2927 12.3274 13.1942 12.1298C13.0954 11.9322 12.3286 9.97874 11.9777 9.19772" fill="white"/>
</g>
<defs>
<linearGradient id="paint0_linear_2015_125735" x1="15.858" y1="31.3428" x2="15.858" y2="0.552734" gradientUnits="userSpaceOnUse">
<stop stop-color="#1FAF38"/>
<stop offset="1" stop-color="#60D669"/>
</linearGradient>
<linearGradient id="paint1_linear_2015_125735" x1="15.8584" y1="31.8942" x2="15.8584" y2="0" gradientUnits="userSpaceOnUse">
<stop stop-color="#F9F9F9"/>
<stop offset="1" stop-color="white"/>
</linearGradient>
<clipPath id="clip0_2015_125735">
<rect width="31.7168" height="32" fill="white"/>
</clipPath>
</defs>
</svg>
