<svg width="29" height="18" viewBox="0 0 29 18" fill="none" xmlns="http://www.w3.org/2000/svg">
<path fill-rule="evenodd" clip-rule="evenodd" d="M8.60599 3.66703C9.59717 3.26426 11.6742 4.16442 12.4492 4.7088C12.8493 4.98866 13.0017 5.21856 13.4153 5.04776C13.8 4.88588 13.7633 4.41732 13.7937 4.13008C13.8148 3.92328 13.7497 3.85685 13.9181 3.65397C14.1068 3.42812 14.2202 3.395 14.4203 3.39896C14.716 3.40299 15.1586 3.72628 15.4169 3.92051C17.0794 5.17276 16.7505 6.53603 17.5009 6.70377C18.0377 6.82286 18.593 5.49804 19.2036 6.97045C19.5853 7.8963 19.6502 8.51425 19.6003 9.43598C19.5907 9.59301 19.5644 9.81768 19.4695 9.93124C19.3258 10.2286 19.1974 10.4851 18.9356 10.7441C18.694 10.9853 18.3381 11.1893 18.1105 11.1598C17.7734 11.1161 17.6947 10.7459 17.5954 10.4828C17.25 9.57613 16.6751 8.77655 15.8624 8.22193C15.619 8.0558 15.3042 7.84494 15.0638 7.84606C14.2861 7.84809 14.5378 8.85173 14.3813 9.1976C13.9957 10.0514 13.1067 9.15207 12.8294 8.97954C11.9186 8.41464 10.6733 8.02698 9.66916 8.00844C9.39987 8.00315 9.06671 8.18677 9.02085 8.5506C8.99589 8.76123 9.3135 9.67554 8.99154 10.1375C8.56562 10.7526 7.76285 9.96687 5.86231 10.5171C5.37078 10.6598 3.59481 11.214 3.97836 12.0287C4.08298 12.2484 4.53308 12.5896 4.73443 12.8438C5.31593 13.5833 4.66533 13.828 4.08317 14.2298C3.51995 14.6175 6.91266 16.5071 6.2763 16.5079C5.63993 16.5087 3.05405 16.5118 1.5692 16.5136C1.18515 15.9761 1.52658 15.3605 1.67169 15.0312C2.02808 14.2246 2.41359 14.1432 2.36807 13.681C2.29749 12.9443 1.58195 13.3409 1.27093 12.8721C1.141 12.6805 1.13983 12.4099 1.24788 12.1942C1.32542 12.0397 1.56654 11.6365 1.69691 11.4872C2.18181 10.9066 2.46056 10.5289 3.0721 10.0416C3.5181 9.68829 4.27205 9.41303 4.27342 8.88576C4.27544 7.97677 1.85407 7.47981 4.451 6.33636C7.12485 5.16104 8.37521 6.79091 8.46524 5.14022C8.50681 4.3768 8.09618 4.19652 8.60599 3.66703Z" fill="#875743"/>
<path fill-rule="evenodd" clip-rule="evenodd" d="M19.1846 2.20885C20.2719 2.6777 21.2116 5.03546 21.4022 6.07962C21.5014 6.61771 21.4446 6.91989 21.9004 7.11341C22.3267 7.29096 22.6575 6.8924 22.9018 6.69003C23.0772 6.54376 23.077 6.43972 23.365 6.41335C23.6864 6.38495 23.8009 6.44884 23.9549 6.61071C24.184 6.84852 24.2833 7.45463 24.337 7.8127C24.681 10.1192 23.3764 10.9331 23.8368 11.6608C24.1668 12.1806 25.6196 11.5766 24.9688 13.222C24.5579 14.2549 24.1345 14.7936 23.3879 15.4808C23.2598 15.597 23.0667 15.7533 22.905 15.7675C22.564 15.888 22.2663 15.9884 21.862 15.9849C21.4872 15.9833 21.0512 15.8618 20.8952 15.6579C20.6641 15.3561 20.8865 15.0017 21.0104 14.7154C21.4352 13.7265 21.5976 12.6399 21.3852 11.5577C21.3217 11.2337 21.2364 10.8176 21.0468 10.6278C20.4347 10.0123 19.862 11.0034 19.4736 11.1519C18.5156 11.5192 18.5079 10.1047 18.4227 9.74867C18.1412 8.58057 17.4612 7.2869 16.687 6.47553C16.4797 6.2577 16.0772 6.13815 15.762 6.38863C15.5807 6.53491 15.1283 7.50783 14.521 7.61662C13.7145 7.76366 13.6873 6.50721 11.7729 5.43313C11.2776 5.15563 9.45797 4.18348 9.13371 5.13024C9.04724 5.38645 9.13873 6.01257 9.1017 6.37276C8.99056 7.41729 8.29199 7.09402 7.52659 6.9489C6.78682 6.80775 6.02157 6.78668 5.26829 6.87563C4.69248 6.94236 3.33821 7.48022 3.69786 6.44138C3.85925 6.17308 4.65165 5.81198 5.01831 5.66747C5.91722 5.31424 6.28238 5.55589 6.60139 5.15534C7.11142 4.51848 6.2453 4.26344 6.3609 3.64706C6.40596 3.39291 6.61278 3.17857 6.86315 3.09423C7.04255 3.03399 7.54137 2.90733 7.7583 2.89306C8.58458 2.82003 9.09332 2.74338 9.94742 2.84437C10.5688 2.91964 11.3719 3.30081 11.7777 2.88615C12.477 2.17102 10.9575 -0.142008 13.8739 1.01688C16.8751 2.21167 16.6057 4.48887 17.9434 3.25877C18.562 2.68979 18.378 2.22184 19.1846 2.20885Z" fill="#9A6954"/>
<path fill-rule="evenodd" clip-rule="evenodd" d="M22.9051 15.7674C22.8106 15.9316 22.714 15.9397 22.5248 16.034C21.9867 16.3027 21.407 16.4255 20.8134 16.4762L18.2042 16.4794C18.4268 16.3291 18.559 16.3409 18.7067 16.1367C19.2324 15.4138 18.5922 14.4722 17.8709 14.9192C17.5911 15.0937 17.2722 15.6022 16.8126 15.5588C15.8481 15.4699 16.517 14.1586 15.195 12.0234C14.8176 11.4156 14.0231 10.1081 13.3357 10.8072C13.2963 10.8473 12.2534 12.7973 11.4375 11.6558C10.9653 10.9962 10.3926 10.4006 9.67022 9.95535C9.27153 9.71175 7.73219 8.89131 7.13094 9.12614C6.56518 9.34491 7.57427 10.8623 7.43696 11.4687C7.33889 11.911 3.84213 11.5131 3.51295 11.6655C3.32517 11.3236 5.61615 10.6446 5.43033 10.2907C5.26823 9.98874 4.95989 9.43891 4.74074 9.2491C4.45619 8.79928 4.00791 8.31964 3.63074 7.93596C3.43722 7.74012 3.16877 7.55237 3.16832 7.18223C3.16782 6.77608 3.47819 6.5336 3.71862 6.37925C4.37541 6.11886 5.09721 6.21636 5.62759 6.28695C6.47622 6.39989 6.90377 6.7889 7.64353 6.93005C8.40894 7.07518 8.99065 7.41721 9.10179 6.37267C9.13882 6.01249 9.04733 5.38636 9.1338 5.13016C9.45806 4.1834 11.2776 5.15555 11.773 5.43305C13.6874 6.50713 13.7146 7.76357 14.521 7.61653C15.1284 7.50775 15.5808 6.53482 15.762 6.38855C16.0773 6.13807 16.4798 6.25762 16.6871 6.47545C17.4612 7.28682 18.1413 8.58048 18.4228 9.74859C18.508 10.1046 18.5156 11.5192 19.4737 11.1518C19.862 11.0033 20.4348 10.0122 21.0469 10.6277C21.2365 10.8176 21.3218 11.2336 21.3853 11.5577C21.5976 12.6398 21.4353 13.7264 21.0105 14.7153C20.8866 15.0016 20.6641 15.356 20.8953 15.6578C21.0513 15.8617 21.4873 15.9832 21.8621 15.9848C22.2664 15.9883 22.5641 15.8879 22.9051 15.7674Z" fill="#875743"/>
<path fill-rule="evenodd" clip-rule="evenodd" d="M18.2043 16.4795L6.56419 16.4937C0.443219 16.5012 2.98698 15.1131 3.62216 14.1439C3.56644 13.7338 2.12629 12.1294 2.77041 11.4744C3.41453 10.8193 5.42193 11.4711 5.98216 11.4705C6.27041 11.4701 6.62481 11.4697 6.79977 10.697C6.93709 10.0906 6.56532 9.34493 7.13108 9.12616C7.73233 8.89133 9.27168 9.71177 9.67037 9.95537C10.3927 10.4007 10.9654 10.9962 11.4376 11.6559C12.2535 12.7973 13.2964 10.8473 13.3358 10.8072C14.0233 10.1081 14.8177 11.4156 15.1952 12.0234C16.5172 14.1586 15.8482 15.4699 16.8128 15.5588C17.2723 15.6023 17.5912 15.0937 17.8711 14.9193C18.5924 14.4722 19.2325 15.4138 18.7068 16.1367C18.5591 16.341 18.427 16.3291 18.2043 16.4795Z" fill="#6D4534"/>
<path fill-rule="evenodd" clip-rule="evenodd" d="M25.7573 16.4707C25.986 16.4544 26.1793 16.4301 26.3134 16.3959C26.7787 16.2733 27.297 16.0166 27.6004 15.7421C27.8821 15.4857 28.3273 15.025 28.4195 14.6147C28.041 14.7292 28.0586 14.5851 27.9457 14.2511C27.8646 14.0151 27.7341 13.7892 27.7614 13.5211C27.9348 13.3508 28.3368 13.1442 28.5757 13.326C28.5742 12.1015 27.0518 10.6108 25.9625 10.0659C25.7 9.93422 24.8573 9.45906 24.5536 9.52346C24.4492 9.62162 24.6306 9.56538 24.6349 9.85549C24.6371 10.0175 24.5406 10.1517 24.4756 10.2538C24.326 10.4921 24.1843 10.7024 24.0406 10.9746C23.3126 12.3461 22.8748 13.9772 22.855 15.5759C22.8478 16.1541 22.8735 16.1541 22.5563 16.4746L25.7573 16.4707Z" fill="#FFD7AB"/>
<path fill-rule="evenodd" clip-rule="evenodd" d="M22.325 11.4506C22.2662 11.7748 22.0853 12.1931 21.995 12.5534C21.8968 12.9417 21.8184 13.3279 21.7637 13.7381C21.6347 14.7187 21.6732 15.5009 21.7552 16.4752L22.5559 16.4742C22.8731 16.1537 22.8474 16.1537 22.8546 15.5755C22.8744 13.9769 23.3122 12.3457 24.0402 10.9743C24.1839 10.702 24.3256 10.4918 24.4752 10.2535C24.5402 10.1514 24.6366 10.0172 24.6345 9.85514C24.6302 9.56503 24.4488 9.62128 24.5532 9.52311L23.5608 9.22621C23.3421 9.41655 23.0351 9.96714 22.8738 10.2694C22.6888 10.6238 22.5119 11.1082 22.325 11.4506Z" fill="#EFB97F"/>
<path fill-rule="evenodd" clip-rule="evenodd" d="M24.5926 12.6085L24.5929 12.8726C24.5939 13.7109 25.4992 13.7078 25.4981 12.8715L25.4978 12.6074C25.4968 11.785 24.5915 11.7601 24.5926 12.6085Z" fill="#42434D"/>
<path fill-rule="evenodd" clip-rule="evenodd" d="M28.419 14.6145C28.5962 14.3602 28.7176 13.6058 28.5752 13.3258C28.3364 13.1441 27.9343 13.3506 27.7609 13.5209C27.7337 13.789 27.8641 14.015 27.9452 14.251C28.0581 14.5849 28.0405 14.729 28.419 14.6145Z" fill="#585966"/>
</svg>
