<svg width="175" height="40" viewBox="0 0 175 40" fill="none" xmlns="http://www.w3.org/2000/svg">
	<g clip-path="url(#clip0_1922_127780_f)">
		<ellipse class="circle" cx="22.0167" cy="19.9338" rx="19.6578" ry="19.2951" fill="#52C8A4"></ellipse>
		<path class="circle-shadow" d="M38.0117 31.0522C34.6018 33.8454 30.2131 35.5262 25.424 35.5262C14.5672 35.5262 5.76624 26.8875 5.76624 16.2311C5.76624 12.0465 7.12335 8.17311 9.42904 5.01172C5.10816 8.5511 2.35889 13.8768 2.35889 19.8328C2.35889 30.4892 11.1599 39.1279 22.0167 39.1279C28.6102 39.1279 34.4456 35.9416 38.0117 31.0522Z" fill="#258769"></path>
		<mask id="mask0_1922_127780_f" style="mask-type:alpha" maskUnits="userSpaceOnUse" x="2" y="0" width="40" height="40">
			<ellipse cx="22.0167" cy="19.9338" rx="19.6578" ry="19.2951" fill="#A8CAF0"></ellipse>
		</mask>
		<g mask="url(#mask0_1922_127780_f)">
			<path fill-rule="evenodd" clip-rule="evenodd" d="M24.1836 21.1086L16.601 19.8316C13.9841 19.3908 12.228 16.9615 12.6795 14.4066L13.8839 7.5904C13.9741 7.0796 14.472 6.73655 14.9952 6.82467L30.1604 9.3788C30.6836 9.46692 31.0349 9.953 30.9447 10.4638L29.7403 17.28C29.2888 19.8349 26.8006 21.5494 24.1836 21.1086Z" fill="#EFB97F"></path>
			<path d="M19.7395 10.3562L18.595 16.8337" stroke="#FFD7AB" stroke-width="2" stroke-linecap="round" stroke-linejoin="round"></path>
			<path d="M24.4783 11.154L23.3337 17.6316" stroke="#EFB97F" stroke-width="5" stroke-linecap="round" stroke-linejoin="round"></path>
			<path d="M27.2231 14.9512L15.8493 13.0356" stroke="#FFD7AB" stroke-width="2" stroke-linecap="round" stroke-linejoin="round"></path>
			<path d="M27.2724 9.44189C27.8427 6.21413 26.1609 3.2364 23.5161 2.79094C20.8712 2.34549 18.2647 4.60099 17.6944 7.82875" stroke="#EFB97F" stroke-width="2"></path>
			<path fill-rule="evenodd" clip-rule="evenodd" d="M10.5801 19.6098C12.1582 18.9948 15.4617 20.3772 16.694 21.2124C17.3301 21.6417 17.5721 21.9941 18.2307 21.7333C18.8431 21.4861 18.7857 20.7685 18.8346 20.3286C18.8687 20.0119 18.7652 19.9101 19.0335 19.5997C19.3342 19.2542 19.5147 19.2037 19.8331 19.2101C20.3037 19.2168 21.0075 19.7128 21.4181 20.0107C24.0613 21.9316 23.5351 24.0188 24.7291 24.2771C25.5831 24.4605 26.4693 22.4326 27.4381 24.6887C28.0438 26.1073 28.1458 27.0538 28.0646 28.4653C28.049 28.7058 28.0068 29.0498 27.8554 29.2236C27.6262 29.6787 27.4214 30.0713 27.0043 30.4675C26.6194 30.8363 26.0526 31.1481 25.6904 31.1025C25.1541 31.035 25.0296 30.4678 24.872 30.0648C24.3242 28.6756 23.4109 27.45 22.1186 26.599C21.7317 26.3442 21.2311 26.0207 20.8486 26.0219C19.6109 26.0236 20.0096 27.5611 19.7598 28.0905C19.1446 29.3974 17.7316 28.0184 17.2907 27.7536C15.8423 26.8868 13.8615 26.2908 12.2635 26.2605C11.835 26.2519 11.3045 26.5325 11.2308 27.0896C11.1906 27.4121 11.6943 28.813 11.181 29.5198C10.5021 30.461 9.2261 29.2562 6.20061 30.0954C5.41815 30.3129 2.59089 31.1583 3.19967 32.4068C3.36572 32.7434 4.08132 33.2668 4.40124 33.6564C5.32518 34.7902 4.28938 35.1637 3.36217 35.7779C2.46514 36.3707 7.86044 39.2708 6.84776 39.2708C5.83509 39.2708 1.72005 39.2708 -0.642863 39.2708C-1.25298 38.4469 -0.708449 37.5048 -0.476889 37.0008C0.0918325 35.7661 0.705459 35.6421 0.633924 34.9342C0.523044 33.8058 -0.616398 34.4118 -1.11044 33.6934C-1.31682 33.3997 -1.31815 32.9852 -1.14579 32.6551C-1.02211 32.4187 -0.63761 31.8016 -0.429858 31.5732C0.342907 30.685 0.787231 30.1071 1.76135 29.3619C2.47179 28.8216 3.67211 28.4015 3.67532 27.594C3.68029 26.2019 -0.171971 25.4363 3.96286 23.69C8.22017 21.895 10.2068 24.3935 10.3532 21.8657C10.4209 20.6966 9.76776 20.4197 10.5801 19.6098Z" fill="#875743"></path>
			<path fill-rule="evenodd" clip-rule="evenodd" d="M27.4178 17.3964C29.1471 18.1164 30.6379 21.729 30.9392 23.3285C31.0961 24.1528 31.0051 24.6154 31.7301 24.9127C32.408 25.1854 32.9353 24.5756 33.3245 24.2661C33.6038 24.0424 33.6038 23.8831 34.062 23.8433C34.5736 23.8004 34.7556 23.8984 35.0004 24.1466C35.3645 24.5113 35.5214 25.4397 35.6062 25.9882C36.1491 29.5211 34.0714 30.7651 34.8027 31.8805C35.3268 32.6771 37.6399 31.7548 36.6011 34.2736C35.9451 35.8546 35.2703 36.6789 34.0808 37.7299C33.8768 37.9076 33.5693 38.1466 33.3119 38.1681C32.7689 38.3519 32.295 38.5051 31.6516 38.499C31.0553 38.4959 30.3617 38.309 30.1138 37.9965C29.7466 37.5338 30.1012 36.9914 30.2989 36.5533C30.9769 35.0396 31.2373 33.3758 30.9015 31.7181C30.8011 31.2217 30.6661 30.5843 30.3648 30.2933C29.3919 29.3495 28.4786 30.8662 27.8603 31.093C26.335 31.6537 26.3256 29.4874 26.1906 28.942C25.745 27.1525 24.6653 25.17 23.435 23.926C23.1055 23.592 22.4652 23.4082 21.9631 23.7912C21.6743 24.0149 20.9525 25.504 19.9858 25.6695C18.7021 25.8932 18.6613 23.9689 15.617 22.3204C14.8292 21.8945 11.9355 20.4023 11.4177 21.8516C11.2796 22.2438 11.4239 23.2029 11.3643 23.7544C11.1854 25.3539 10.0744 24.8575 8.85665 24.6338C7.67971 24.4163 6.46197 24.3826 5.26306 24.5174C4.34662 24.6185 2.19046 25.4397 2.76481 23.8494C3.02216 23.4388 4.28384 22.8873 4.86761 22.6667C6.29877 22.1274 6.87939 22.4981 7.38783 21.8853C8.2007 20.9109 6.8229 20.5187 7.00807 19.575C7.08025 19.1858 7.4098 18.8579 7.80839 18.7293C8.09399 18.6373 8.88804 18.4443 9.23327 18.4228C10.5483 18.3125 11.358 18.1961 12.717 18.3524C13.7056 18.4688 14.983 19.054 15.6295 18.4198C16.7437 17.3259 14.3302 13.7807 18.9689 15.5609C23.7426 17.3964 23.3095 20.8833 25.4405 19.002C26.426 18.1317 26.1341 17.4147 27.4178 17.3964Z" fill="#9A6954"></path>
			<path fill-rule="evenodd" clip-rule="evenodd" d="M33.312 38.1691C33.1614 38.4204 33.0076 38.4326 32.7063 38.5767C31.8495 38.9873 30.9267 39.1742 29.9821 39.2508H25.8298C26.1845 39.021 26.3947 39.0393 26.6301 38.7268C27.4681 37.6207 26.4512 36.1775 25.3025 36.8608C24.8569 37.1273 24.3484 37.9056 23.6172 37.8382C22.0824 37.7003 23.1495 35.6933 21.0499 32.4208C20.4504 31.4893 19.1887 29.4854 18.0934 30.5548C18.0306 30.6161 16.3672 33.6005 15.071 31.8509C14.3209 30.8397 13.4107 29.9266 12.262 29.2433C11.6281 28.8695 9.18002 27.6102 8.22278 27.9687C7.32203 28.3027 8.92489 30.6283 8.7052 31.5568C8.54827 32.2339 2.9845 31.618 2.46037 31.8509C2.16221 31.3269 5.80927 30.2913 5.51425 29.7489C5.25689 29.2862 4.76728 28.4436 4.41891 28.1525C3.96696 27.4631 3.25452 26.7277 2.65506 26.1394C2.34749 25.8391 1.92065 25.5511 1.92065 24.9842C1.92065 24.3622 2.41503 23.9914 2.79793 23.7555C3.84362 23.3579 4.99206 23.5086 5.83595 23.6177C7.18619 23.7923 7.86582 24.3888 9.04276 24.6064C10.2605 24.8301 11.1855 25.355 11.3644 23.7555C11.4241 23.204 11.2797 22.2449 11.4178 21.8527C11.9356 20.4033 14.8293 21.8956 15.6171 22.3215C18.6615 23.97 18.7023 25.8943 19.9859 25.6706C20.9526 25.5051 21.6744 24.0159 21.9632 23.7923C22.4653 23.4092 23.1056 23.5931 23.4351 23.9271C24.6654 25.1711 25.7451 27.1536 26.1907 28.9431C26.3257 29.4885 26.3351 31.6548 27.8604 31.0941C28.4787 30.8673 29.392 29.3506 30.365 30.2943C30.6662 30.5854 30.8012 31.2228 30.9016 31.7192C31.2375 33.3768 30.977 35.0407 30.299 36.5543C30.1013 36.9925 29.7467 37.5349 30.1139 37.9975C30.3618 38.3101 31.0554 38.497 31.6517 38.5001C32.2951 38.5062 32.769 38.353 33.312 38.1691Z" fill="#875743"></path>
			<path fill-rule="evenodd" clip-rule="evenodd" d="M25.8299 39.2499H7.30639C-2.4342 39.2499 1.6165 37.1289 2.62917 35.6459C2.5413 35.0177 0.252648 32.5579 1.27894 31.5559C2.30523 30.5539 5.49842 31.5559 6.38995 31.5559C6.84865 31.5559 7.41262 31.5559 7.69255 30.3729C7.91224 29.4445 7.32209 28.3018 8.22284 27.9678C9.18008 27.6093 11.6281 28.8687 12.2621 29.2425C13.4108 29.9258 14.321 30.8389 15.0711 31.8501C16.3673 33.5997 18.0307 30.6152 18.0934 30.5539C19.1888 29.4846 20.4505 31.4885 21.0499 32.42C23.1496 35.6925 22.0825 37.6995 23.6172 37.8374C24.3485 37.9048 24.8569 37.1265 25.3026 36.8599C26.4513 36.1766 27.4682 37.6198 26.6302 38.726C26.3948 39.0385 26.1845 39.0201 25.8299 39.2499Z" fill="#6D4534"></path>
			<path fill-rule="evenodd" clip-rule="evenodd" d="M37.8477 39.2493C38.2118 39.2248 38.5193 39.188 38.7328 39.1359C39.4735 38.949 40.2989 38.5568 40.7822 38.137C41.231 37.7448 41.9403 37.0401 42.0878 36.4119C41.4852 36.5866 41.5135 36.366 41.3346 35.8543C41.2059 35.4927 40.9988 35.1464 41.0427 34.7358C41.3189 34.4754 41.9592 34.1598 42.3389 34.4386C42.3389 32.5634 40.7861 32.8629 39.0536 32.0264C38.6362 31.8242 36.4291 28.5095 35.9458 28.6076C35.7794 28.7577 36.0682 28.6719 36.0744 29.1162C36.0776 29.3644 35.9238 29.5697 35.8202 29.726C35.5817 30.0906 35.3557 30.4124 35.1266 30.8291C33.9654 32.928 33.2655 35.4253 33.231 37.8735C33.2184 38.759 33.2592 38.759 32.7539 39.2493H37.8477Z" fill="#FFD7AB"></path>
			<path fill-rule="evenodd" clip-rule="evenodd" d="M32.3967 31.5566C32.3025 32.053 32.0138 32.6934 31.8694 33.2449C31.7125 33.8394 31.587 34.4307 31.4991 35.0589C31.2919 36.5603 31.3516 37.7584 31.4803 39.2506H32.7545C33.2598 38.7603 33.219 38.7603 33.2315 37.8748C33.2661 35.4266 33.966 32.9293 35.1272 30.8304C35.3563 30.4137 35.5823 30.0919 35.8208 29.7273C35.9244 29.571 36.0782 29.3657 36.075 29.1175C36.0688 28.6732 35.78 28.759 35.9464 28.6089L34.3677 28.1523C34.0193 28.4434 33.5297 29.2861 33.2723 29.7488C32.9773 30.2911 32.6949 31.0326 32.3967 31.5566Z" fill="#EFB97F"></path>
			<path fill-rule="evenodd" clip-rule="evenodd" d="M36.0029 33.3335V33.738C36.0029 35.0219 37.4435 35.0188 37.4435 33.738V33.3335C37.4435 32.0742 36.0029 32.0343 36.0029 33.3335Z" fill="#42434D"></path>
			<path fill-rule="evenodd" clip-rule="evenodd" d="M42.0882 36.413C42.3707 36.0239 42.5653 34.8687 42.3393 34.4397C41.9596 34.1609 41.3193 34.4765 41.0431 34.737C40.9992 35.1476 41.2063 35.4938 41.335 35.8554C41.5139 36.3671 41.4856 36.5877 42.0882 36.413Z" fill="#585966"></path>
		</g>
		<mask id="mask1_1922_127780_f" style="mask-type:alpha" maskUnits="userSpaceOnUse" x="20" y="-4" width="32" height="55">
			<rect x="20.9463" y="-3.11914" width="30.5995" height="53.8987" fill="#D9D9D9"></rect>
		</mask>
		<g mask="url(#mask1_1922_127780_f)">
			<path fill-rule="evenodd" clip-rule="evenodd" d="M24.1836 21.1086L16.601 19.8316C13.9841 19.3908 12.228 16.9615 12.6795 14.4066L13.8839 7.5904C13.9741 7.0796 14.472 6.73655 14.9952 6.82467L30.1604 9.3788C30.6836 9.46692 31.0349 9.953 30.9447 10.4638L29.7403 17.28C29.2888 19.8349 26.8006 21.5494 24.1836 21.1086Z" fill="#EFB97F"></path>
			<path d="M19.7395 10.3562L18.595 16.8337" stroke="#EFB97F" stroke-width="5" stroke-linecap="round" stroke-linejoin="round"></path>
			<path d="M24.4783 11.154L23.3337 17.6316" stroke="#FFD7AB" stroke-width="2" stroke-linecap="round" stroke-linejoin="round"></path>
			<path d="M27.2231 14.9512L15.8493 13.0356" stroke="#FFD7AB" stroke-width="2" stroke-linecap="round" stroke-linejoin="round"></path>
			<path d="M27.2724 9.44189C27.8427 6.21413 26.1609 3.2364 23.5161 2.79094C20.8712 2.34549 18.2647 4.60099 17.6944 7.82875" stroke="#EFB97F" stroke-width="2"></path>
			<path fill-rule="evenodd" clip-rule="evenodd" d="M10.5801 19.6068C12.1582 18.9919 15.4617 20.3743 16.694 21.2095C17.3301 21.6388 17.5721 21.9912 18.2307 21.7304C18.8431 21.4832 18.7857 20.7655 18.8346 20.3257C18.8687 20.009 18.7652 19.9072 19.0335 19.5968C19.3342 19.2512 19.5147 19.2007 19.8331 19.2072C20.3037 19.2139 21.0075 19.7098 21.4181 20.0078C24.0613 21.9287 23.5351 24.0159 24.7291 24.2742C25.5831 24.4576 26.4693 22.4297 27.4381 24.6858C28.0438 26.1044 28.1458 27.0509 28.0646 28.4624C28.049 28.7029 28.0068 29.0469 27.8554 29.2206C27.6262 29.6758 27.4214 30.0684 27.0043 30.4646C26.6194 30.8334 26.0526 31.1452 25.6904 31.0996C25.1541 31.0321 25.0296 30.4649 24.872 30.0618C24.3242 28.6726 23.4109 27.447 22.1186 26.5961C21.7317 26.3412 21.2311 26.0177 20.8486 26.019C19.6109 26.0206 20.0096 27.5582 19.7598 28.0876C19.1446 29.3945 17.7316 28.0155 17.2907 27.7507C15.8423 26.8839 13.8615 26.2878 12.2635 26.2576C11.835 26.249 11.3045 26.5296 11.2308 27.0867C11.1906 27.4092 11.6943 28.81 11.181 29.5169C10.5021 30.4581 9.2261 29.2533 6.20061 30.0925C5.41815 30.31 2.59089 31.1554 3.19967 32.4039C3.36572 32.7405 4.08132 33.2639 4.40124 33.6535C5.32518 34.7873 4.28938 35.1608 3.36217 35.775C2.46514 36.3677 7.86044 39.2679 6.84776 39.2679C5.83509 39.2679 1.72005 39.2679 -0.642863 39.2679C-1.25298 38.444 -0.708449 37.5019 -0.476889 36.9978C0.0918325 35.7632 0.705459 35.6392 0.633924 34.9312C0.523044 33.8029 -0.616398 34.4089 -1.11044 33.6904C-1.31682 33.3968 -1.31815 32.9823 -1.14579 32.6522C-1.02211 32.4158 -0.63761 31.7987 -0.429858 31.5703C0.342907 30.6821 0.787231 30.1041 1.76135 29.359C2.47179 28.8187 3.67211 28.3986 3.67532 27.5911C3.68029 26.199 -0.171971 25.4334 3.96286 23.6871C8.22017 21.8921 10.2068 24.3905 10.3532 21.8627C10.4209 20.6936 9.76776 20.4168 10.5801 19.6068Z" fill="#875743"></path>
			<path fill-rule="evenodd" clip-rule="evenodd" d="M27.4178 17.3934C29.1471 18.1135 30.6379 21.7261 30.9392 23.3256C31.0961 24.1498 31.0051 24.6125 31.7301 24.9097C32.408 25.1824 32.9353 24.5727 33.3245 24.2632C33.6038 24.0395 33.6038 23.8802 34.062 23.8403C34.5736 23.7974 34.7556 23.8955 35.0004 24.1437C35.3645 24.5083 35.5214 25.4368 35.6062 25.9852C36.1491 29.5182 34.0714 30.7622 34.8027 31.8775C35.3268 32.6742 37.6399 31.7519 36.6011 34.2706C35.9451 35.8517 35.2703 36.676 34.0808 37.727C33.8768 37.9047 33.5693 38.1437 33.3119 38.1651C32.7689 38.349 32.295 38.5022 31.6516 38.496C31.0553 38.493 30.3617 38.3061 30.1138 37.9935C29.7466 37.5308 30.1012 36.9885 30.2989 36.5503C30.9769 35.0367 31.2373 33.3728 30.9015 31.7151C30.8011 31.2188 30.6661 30.5814 30.3648 30.2903C29.3919 29.3466 28.4786 30.8633 27.8603 31.0901C26.335 31.6508 26.3256 29.4845 26.1906 28.939C25.745 27.1496 24.6653 25.1671 23.435 23.9231C23.1055 23.5891 22.4652 23.4052 21.9631 23.7883C21.6743 24.0119 20.9525 25.5011 19.9858 25.6666C18.7021 25.8902 18.6613 23.966 15.617 22.3175C14.8292 21.8916 11.9355 20.3993 11.4177 21.8487C11.2796 22.2409 11.4239 23.1999 11.3643 23.7515C11.1854 25.351 10.0744 24.8546 8.85665 24.6309C7.67971 24.4133 6.46197 24.3796 5.26306 24.5145C4.34662 24.6156 2.19046 25.4368 2.76481 23.8465C3.02216 23.4359 4.28384 22.8843 4.86761 22.6637C6.29877 22.1244 6.87939 22.4952 7.38783 21.8824C8.2007 20.908 6.8229 20.5158 7.00807 19.572C7.08025 19.1829 7.4098 18.855 7.80839 18.7263C8.09399 18.6344 8.88804 18.4414 9.23327 18.4199C10.5483 18.3096 11.358 18.1932 12.717 18.3494C13.7056 18.4659 14.983 19.0511 15.6295 18.4168C16.7437 17.323 14.3302 13.7778 18.9689 15.558C23.7426 17.3934 23.3095 20.8804 25.4405 18.999C26.426 18.1288 26.1341 17.4118 27.4178 17.3934Z" fill="#9A6954"></path>
			<path fill-rule="evenodd" clip-rule="evenodd" d="M33.312 38.1662C33.1614 38.4175 33.3266 38.8271 33.0253 38.9711C32.1685 39.3817 30.9267 39.1712 29.9821 39.2478H25.8298C26.1845 39.018 26.3947 39.0364 26.6301 38.7239C27.4681 37.6177 26.4512 36.1745 25.3025 36.8578C24.8569 37.1244 24.3484 37.9027 23.6172 37.8353C22.0824 37.6974 23.1495 35.6904 21.0499 32.4179C20.4504 31.4864 19.1887 29.4825 18.0934 30.5519C18.0306 30.6131 16.3672 33.5976 15.071 31.848C14.3209 30.8368 13.4107 29.9237 12.262 29.2404C11.6281 28.8666 9.18002 27.6072 8.22278 27.9657C7.32203 28.2997 8.92489 30.6254 8.7052 31.5538C8.54827 32.231 2.9845 31.6151 2.46037 31.848C2.16221 31.324 5.80927 30.2883 5.51425 29.746C5.25689 29.2833 4.76728 28.4407 4.41891 28.1496C3.96696 27.4602 3.25452 26.7248 2.65507 26.1365C2.34749 25.8362 1.92065 25.5481 1.92065 24.9813C1.92065 24.3593 2.41503 23.9885 2.79793 23.7526C3.84362 23.355 4.99206 23.5057 5.83595 23.6148C7.18619 23.7893 7.86582 24.3859 9.04276 24.6034C10.2605 24.8271 11.1855 25.352 11.3644 23.7526C11.4241 23.201 11.2797 22.242 11.4178 21.8497C11.9356 20.4004 14.8293 21.8926 15.6171 22.3186C18.6615 23.9671 18.7023 25.8913 19.9859 25.6676C20.9526 25.5022 21.6744 24.013 21.9632 23.7893C22.4653 23.4063 23.1056 23.5902 23.4351 23.9242C24.6654 25.1682 25.7451 27.1507 26.1907 28.9401C26.3257 29.4855 26.3351 31.6519 27.8604 31.0911C28.4787 30.8644 29.392 29.3477 30.365 30.2914C30.6662 30.5825 30.8012 31.2198 30.9016 31.7162C31.2375 33.3739 30.977 35.0377 30.299 36.5514C30.1013 36.9896 29.7467 37.5319 30.1139 37.9946C30.3618 38.3072 31.0554 38.4941 31.6517 38.4971C32.2951 38.5033 32.769 38.35 33.312 38.1662Z" fill="#875743"></path>
			<path fill-rule="evenodd" clip-rule="evenodd" d="M25.8299 39.247H7.30639C-2.4342 39.247 1.6165 37.1259 2.62917 35.6429C2.5413 35.0148 0.252648 32.5549 1.27894 31.553C2.30523 30.551 5.49842 31.553 6.38995 31.553C6.84865 31.553 7.41262 31.553 7.69255 30.37C7.91224 29.4416 7.32209 28.2989 8.22284 27.9649C9.18008 27.6064 11.6281 28.8657 12.2621 29.2396C13.4108 29.9229 14.321 30.836 15.0711 31.8471C16.3673 33.5967 18.0307 30.6123 18.0934 30.551C19.1888 29.4816 20.4505 31.4856 21.0499 32.4171C23.1496 35.6895 22.0825 37.6965 23.6172 37.8344C24.3485 37.9018 24.8569 37.1236 25.3026 36.857C26.4513 36.1737 27.4682 37.6169 26.6302 38.723C26.3948 39.0356 26.1845 39.0172 25.8299 39.247Z" fill="#6D4534"></path>
			<path fill-rule="evenodd" clip-rule="evenodd" d="M37.8482 39.2465C38.2123 39.2219 38.5198 39.1852 38.7333 39.1331C39.4739 38.9462 40.2994 38.554 40.7827 38.1342C41.2315 37.742 41.9408 37.0372 42.0883 36.4091C41.4857 36.5837 41.514 36.3631 41.3351 35.8514C41.2064 35.4898 40.9993 35.1436 41.0432 34.733C41.3194 34.4726 41.9596 34.1569 42.3394 34.4358C42.3394 32.5605 40.7866 32.7314 39.0541 31.8949C38.6367 31.6927 36.4296 28.5067 35.9463 28.6048C35.7799 28.7549 36.0687 28.6691 36.0749 29.1134C36.0781 29.3616 35.9243 29.5669 35.8207 29.7232C35.5822 30.0878 35.3562 30.4095 35.1271 30.8262C33.9659 32.9252 33.266 35.4224 33.2314 37.8707C33.2189 38.7562 33.2597 38.7562 32.7544 39.2465H37.8482Z" fill="#FFD7AB"></path>
			<path fill-rule="evenodd" clip-rule="evenodd" d="M32.3967 31.5537C32.3025 32.05 32.0138 32.6904 31.8694 33.242C31.7125 33.8364 31.587 34.4278 31.4991 35.0559C31.2919 36.5574 31.3516 37.7554 31.4803 39.2477H32.7545C33.2598 38.7574 33.219 38.7574 33.2315 37.8719C33.2661 35.4236 33.966 32.9264 35.1272 30.8275C35.3563 30.4107 35.5823 30.089 35.8208 29.7244C35.9244 29.5681 36.436 29.1857 36.4328 28.9375C36.1707 28.6802 36.1707 28.6802 35.9464 28.606L34.3677 28.1494C34.0193 28.4405 33.5297 29.2831 33.2723 29.7458C32.9773 30.2882 32.6949 31.0297 32.3967 31.5537Z" fill="#EFB97F"></path>
			<path fill-rule="evenodd" clip-rule="evenodd" d="M36.0029 33.3306V33.7351C36.0029 35.0189 37.4435 35.0159 37.4435 33.7351V33.3306C37.4435 32.0713 36.0029 32.0314 36.0029 33.3306Z" fill="#42434D"></path>
			<path fill-rule="evenodd" clip-rule="evenodd" d="M42.0882 36.4101C42.3707 36.021 42.5653 34.8658 42.3393 34.4368C41.9596 34.158 41.3193 34.4736 41.0431 34.734C40.9992 35.1446 41.2063 35.4909 41.335 35.8524C41.5139 36.3641 41.4856 36.5848 42.0882 36.4101Z" fill="#585966"></path>
		</g>
	</g>
	<path d="M61.256 32.32C60.9147 32.32 60.68 32.256 60.552 32.128C60.4453 32 60.3707 31.7547 60.328 31.392L60.04 25.344L60.072 24.448L60.104 21.472C60.104 18.3787 60.0933 16.0533 60.072 14.496C60.0507 13.984 60.04 12.8213 60.04 11.008L60.072 9.728C60.072 9.49333 60.0293 9.35467 59.944 9.312C59.8587 9.248 59.624 9.19467 59.24 9.152C58.8133 9.10933 58.504 9.088 58.312 9.088C57.7147 9.088 57.1493 9.20533 56.616 9.44C56.488 9.73867 56.4133 10.3573 56.392 11.296C56.3707 12.2347 56.36 13.3867 56.36 14.752C56.3387 15.072 56.3493 16.4693 56.392 18.944V21.536C56.392 21.9413 56.4347 22.528 56.52 23.296C56.6053 24.192 56.648 24.8747 56.648 25.344C56.648 25.6427 56.6267 26.0267 56.584 26.496L56.552 27.488L56.712 31.136C56.712 31.4347 56.6267 31.6587 56.456 31.808C56.2853 31.9573 56.0507 32.0213 55.752 32C55.1547 32 54.856 31.712 54.856 31.136C54.92 28.896 54.952 26.6453 54.952 24.384V22.88C54.9093 21.216 54.8667 19.9787 54.824 19.168C54.7813 18.528 54.7387 17.6107 54.696 16.416C54.632 14.7307 54.5573 12.256 54.472 8.992C54.472 8.62933 54.5467 8.36267 54.696 8.192C54.8667 8 55.1227 7.89333 55.464 7.872C57.6827 7.82933 59.3573 7.808 60.488 7.808C60.8933 7.808 61.224 7.936 61.48 8.192C61.7573 8.448 61.8533 8.75733 61.768 9.12C61.6827 9.632 61.64 10.2187 61.64 10.88C61.64 11.3707 61.6507 11.744 61.672 12C61.672 12.192 61.672 12.4267 61.672 12.704C61.6933 12.9813 61.6933 13.3013 61.672 13.664C61.6507 14.1333 61.64 14.72 61.64 15.424C61.5973 16.96 61.544 18.048 61.48 18.688C61.5013 19.1787 61.5227 19.968 61.544 21.056C61.5867 22.1227 61.6293 22.88 61.672 23.328C61.608 23.7333 61.576 24.1493 61.576 24.576C61.576 25.0667 61.64 25.824 61.768 26.848C61.8533 27.5947 61.9067 28.1813 61.928 28.608L61.96 29.376C62.0027 30.0587 62.024 30.56 62.024 30.88L61.992 31.584C62.0133 32.0747 61.768 32.32 61.256 32.32ZM70.237 32.896C69.661 32.896 69.1383 32.704 68.669 32.32C68.1997 31.936 67.7943 31.4133 67.453 30.752C66.8343 29.6 66.3757 28.0213 66.077 26.016C65.8637 24.6293 65.7037 23.0293 65.597 21.216L65.565 19.52V17.792C65.5437 17.2373 65.533 16.5653 65.533 15.776C65.533 14.496 65.5863 13.3653 65.693 12.384C65.7783 11.36 65.9917 10.3467 66.333 9.344C66.6743 8.46933 67.165 7.85067 67.805 7.488C68.189 7.31733 68.573 7.232 68.957 7.232C70.0877 7.232 70.9837 7.68 71.645 8.576C72.3703 9.57866 72.8503 10.6987 73.085 11.936C73.4263 13.4293 73.6183 14.8587 73.661 16.224C73.7463 17.7387 73.789 19.168 73.789 20.512V22.336C73.789 22.6987 73.7357 23.3813 73.629 24.384C73.5437 25.1733 73.501 25.8453 73.501 26.4V26.528C73.373 27.1253 73.309 27.8293 73.309 28.64C73.309 29.2373 73.181 29.856 72.925 30.496C72.669 31.136 72.3063 31.68 71.837 32.128C71.3677 32.64 70.8343 32.896 70.237 32.896ZM70.301 31.136C70.7277 31.136 71.0903 30.7413 71.389 29.952C71.645 29.248 71.8263 28.3947 71.933 27.392C72.061 26.368 72.1677 25.216 72.253 23.936C72.2957 23.3813 72.317 22.6667 72.317 21.792L72.285 18.848C72.2423 17.696 72.1143 16.256 71.901 14.528C71.7303 13.056 71.4103 11.7547 70.941 10.624C70.7277 10.0907 70.461 9.67467 70.141 9.376C69.821 9.07733 69.4797 8.928 69.117 8.928C68.5837 8.928 68.189 9.344 67.933 10.176C67.613 11.0507 67.3997 12.0107 67.293 13.056C67.165 14.1867 67.0903 15.264 67.069 16.288L67.037 17.344C67.0157 17.6427 67.005 18.048 67.005 18.56V18.688C67.005 20.1173 67.1543 21.8773 67.453 23.968C67.7943 26.8053 68.2957 28.8213 68.957 30.016C69.3837 30.7627 69.8317 31.136 70.301 31.136ZM87.6798 32.512C87.0824 32.512 86.5278 32.3733 86.0158 32.096C85.5251 31.8187 85.0984 31.4453 84.7358 30.976C84.4158 30.528 84.1278 29.9627 83.8718 29.28C83.6158 28.576 83.4238 27.8507 83.2958 27.104C83.0398 25.8453 82.8691 24.192 82.7838 22.144C82.7624 21.6533 82.7518 20.8107 82.7518 19.616V17.6C82.7731 17.024 82.7838 16.4267 82.7838 15.808C82.7838 14.5493 82.8584 13.5573 83.0078 12.832C82.9438 12.512 82.9118 12.1813 82.9118 11.84C82.9118 10.56 83.3918 9.52533 84.3518 8.736C85.3118 7.94666 86.5278 7.552 87.9998 7.552C88.5544 7.552 89.0664 7.70133 89.5358 8C90.0051 8.29866 90.2398 8.672 90.2398 9.12C90.2398 9.33333 90.1544 9.504 89.9838 9.632C89.8131 9.76 89.5998 9.824 89.3438 9.824C89.1304 9.824 88.8958 9.792 88.6398 9.728C88.4051 9.664 88.2558 9.568 88.1918 9.44H87.7758V9.376C86.9864 9.376 86.3251 9.54667 85.7918 9.888C85.4078 10.1653 85.1091 10.624 84.8958 11.264C84.8104 11.4987 84.7464 11.7973 84.7038 12.16C84.6611 12.5227 84.6398 12.8533 84.6398 13.152C84.6184 13.3227 84.6078 13.664 84.6078 14.176L84.6718 15.296L84.7038 16.384C84.7038 16.704 84.6611 17.0773 84.5758 17.504C84.4691 18.0373 84.4158 18.4107 84.4158 18.624V19.392C84.4158 20.224 84.4478 21.3653 84.5118 22.816C84.5331 24.032 84.6718 25.248 84.9278 26.464C85.1198 27.5947 85.4824 28.5547 86.0158 29.344C86.5278 30.1547 87.2211 30.56 88.0958 30.56C88.4584 30.56 88.9064 30.368 89.4398 29.984C90.0158 29.6 90.4211 29.408 90.6558 29.408C90.9544 29.408 91.2638 29.568 91.5838 29.888C91.5838 30.6773 91.2851 31.2853 90.6878 31.712C90.1331 32.096 89.4718 32.3413 88.7038 32.448C88.2771 32.4907 87.9358 32.512 87.6798 32.512ZM98.237 32.896C97.661 32.896 97.1383 32.704 96.669 32.32C96.1997 31.936 95.7943 31.4133 95.453 30.752C94.8343 29.6 94.3757 28.0213 94.077 26.016C93.8637 24.6293 93.7037 23.0293 93.597 21.216L93.565 19.52V17.792C93.5437 17.2373 93.533 16.5653 93.533 15.776C93.533 14.496 93.5863 13.3653 93.693 12.384C93.7783 11.36 93.9917 10.3467 94.333 9.344C94.6743 8.46933 95.165 7.85067 95.805 7.488C96.189 7.31733 96.573 7.232 96.957 7.232C98.0877 7.232 98.9837 7.68 99.645 8.576C100.37 9.57866 100.85 10.6987 101.085 11.936C101.426 13.4293 101.618 14.8587 101.661 16.224C101.746 17.7387 101.789 19.168 101.789 20.512V22.336C101.789 22.6987 101.736 23.3813 101.629 24.384C101.544 25.1733 101.501 25.8453 101.501 26.4V26.528C101.373 27.1253 101.309 27.8293 101.309 28.64C101.309 29.2373 101.181 29.856 100.925 30.496C100.669 31.136 100.306 31.68 99.837 32.128C99.3677 32.64 98.8343 32.896 98.237 32.896ZM98.301 31.136C98.7277 31.136 99.0903 30.7413 99.389 29.952C99.645 29.248 99.8263 28.3947 99.933 27.392C100.061 26.368 100.168 25.216 100.253 23.936C100.296 23.3813 100.317 22.6667 100.317 21.792L100.285 18.848C100.242 17.696 100.114 16.256 99.901 14.528C99.7303 13.056 99.4103 11.7547 98.941 10.624C98.7277 10.0907 98.461 9.67467 98.141 9.376C97.821 9.07733 97.4797 8.928 97.117 8.928C96.5837 8.928 96.189 9.344 95.933 10.176C95.613 11.0507 95.3997 12.0107 95.293 13.056C95.165 14.1867 95.0903 15.264 95.069 16.288L95.037 17.344C95.0157 17.6427 95.005 18.048 95.005 18.56V18.688C95.005 20.1173 95.1543 21.8773 95.453 23.968C95.7943 26.8053 96.2957 28.8213 96.957 30.016C97.3837 30.7627 97.8317 31.136 98.301 31.136ZM109.836 32.512C109.239 32.512 108.684 32.3733 108.172 32.096C107.681 31.8187 107.255 31.4453 106.892 30.976C106.572 30.528 106.284 29.9627 106.028 29.28C105.772 28.576 105.58 27.8507 105.452 27.104C105.196 25.8453 105.025 24.192 104.94 22.144C104.919 21.6533 104.908 20.8107 104.908 19.616V17.6C104.929 17.024 104.94 16.4267 104.94 15.808C104.94 14.5493 105.015 13.5573 105.164 12.832C105.1 12.512 105.068 12.1813 105.068 11.84C105.068 10.56 105.548 9.52533 106.508 8.736C107.468 7.94666 108.684 7.552 110.156 7.552C110.711 7.552 111.223 7.70133 111.692 8C112.161 8.29866 112.396 8.672 112.396 9.12C112.396 9.33333 112.311 9.504 112.14 9.632C111.969 9.76 111.756 9.824 111.5 9.824C111.287 9.824 111.052 9.792 110.796 9.728C110.561 9.664 110.412 9.568 110.348 9.44H109.932V9.376C109.143 9.376 108.481 9.54667 107.948 9.888C107.564 10.1653 107.265 10.624 107.052 11.264C106.967 11.4987 106.903 11.7973 106.86 12.16C106.817 12.5227 106.796 12.8533 106.796 13.152C106.775 13.3227 106.764 13.664 106.764 14.176L106.828 15.296L106.86 16.384C106.86 16.704 106.817 17.0773 106.732 17.504C106.625 18.0373 106.572 18.4107 106.572 18.624V19.392C106.572 20.224 106.604 21.3653 106.668 22.816C106.689 24.032 106.828 25.248 107.084 26.464C107.276 27.5947 107.639 28.5547 108.172 29.344C108.684 30.1547 109.377 30.56 110.252 30.56C110.615 30.56 111.063 30.368 111.596 29.984C112.172 29.6 112.577 29.408 112.812 29.408C113.111 29.408 113.42 29.568 113.74 29.888C113.74 30.6773 113.441 31.2853 112.844 31.712C112.289 32.096 111.628 32.3413 110.86 32.448C110.433 32.4907 110.092 32.512 109.836 32.512ZM118.025 32.192C117.62 32.192 117.268 32.1387 116.969 32.032C116.607 31.9253 116.425 31.6267 116.425 31.136V12.544C116.425 12.1813 116.361 11.6373 116.233 10.912C116.084 10.2507 116.009 9.70667 116.009 9.28V9.184C116.372 8.58666 116.639 8.20267 116.809 8.032C117.108 8.032 117.503 7.98933 117.993 7.904C118.441 7.81867 118.836 7.776 119.177 7.776C119.519 7.776 119.849 7.88267 120.169 8.096C120.489 8.288 120.649 8.52267 120.649 8.8C120.649 9.44 120.159 9.76 119.177 9.76H118.729C118.601 9.73867 118.452 9.728 118.281 9.728C118.089 9.728 117.972 9.73867 117.929 9.76C117.929 10.4853 117.972 11.36 118.057 12.384L118.121 13.28L118.185 15.04C118.185 15.4453 118.153 16.064 118.089 16.896L118.025 18.688L118.473 18.592C118.9 18.464 119.252 18.4 119.529 18.4C119.764 18.4 119.977 18.496 120.169 18.688C120.361 18.8587 120.457 19.0613 120.457 19.296C120.457 19.552 120.372 19.7867 120.201 20C120.052 20.192 119.86 20.288 119.625 20.288L119.241 20.256H118.825C118.505 20.256 118.281 20.3307 118.153 20.48V30.368L119.945 30.272C121.161 30.272 121.769 30.5493 121.769 31.104V31.232C121.641 31.488 121.407 31.7013 121.065 31.872C120.724 32.0213 120.393 32.1173 120.073 32.16L119.017 32.192H118.025ZM134.58 35.328C134.388 35.328 134.196 35.2213 134.004 35.008C133.833 34.816 133.748 34.592 133.748 34.336C133.748 33.9733 133.812 32.96 133.94 31.296C133.47 31.168 133.001 31.104 132.532 31.104C132.084 31.104 131.454 31.1573 130.644 31.264L129.876 31.36C128.318 31.5307 127.092 31.648 126.196 31.712C126.11 31.712 125.545 31.744 124.5 31.808C124.5 32.0213 124.5 32.3307 124.5 32.736C124.521 33.1413 124.521 33.472 124.5 33.728C124.478 34.0053 124.393 34.2293 124.243 34.4C124.116 34.5707 123.956 34.656 123.764 34.656C123.657 34.656 123.518 34.6133 123.348 34.528C123.177 34.3787 122.995 34.0907 122.803 33.664C122.761 33.536 122.739 33.0773 122.739 32.288L122.707 31.424C122.686 31.2533 122.771 31.072 122.963 30.88C123.155 30.6667 123.422 30.5493 123.764 30.528C124.724 30.464 125.342 29.92 125.62 28.896C125.769 28.4053 125.908 27.8187 126.036 27.136C126.164 26.432 126.249 25.8133 126.292 25.28C126.59 22.464 126.74 20.3093 126.74 18.816C126.74 18.304 126.718 17.5573 126.676 16.576C126.633 15.8933 126.612 15.392 126.612 15.072C126.612 14.176 126.601 13.504 126.58 13.056C126.58 11.2427 126.558 10.0907 126.516 9.6C126.473 9.17333 126.548 8.82133 126.74 8.544C126.932 8.24533 127.23 8.07467 127.636 8.032C128.66 7.92533 129.278 7.872 129.492 7.872C129.94 7.872 130.334 7.92533 130.676 8.032C130.825 8.07467 130.953 8.096 131.06 8.096C131.188 8.096 131.284 8.10667 131.348 8.128C131.753 8.17067 132.03 8.256 132.18 8.384C132.35 8.512 132.436 8.82133 132.436 9.312L132.404 11.52C132.404 12.0107 132.414 12.3733 132.436 12.608C132.5 14.9333 132.617 18.5173 132.788 23.36L132.82 24.224C132.862 25.312 132.916 26.4213 132.98 27.552C133.044 28.6613 133.129 29.44 133.236 29.888C134.025 29.888 134.622 29.9413 135.028 30.048C135.454 30.1547 135.668 30.4213 135.668 30.848C135.668 30.9547 135.657 31.04 135.636 31.104C135.572 31.5307 135.508 32 135.444 32.512C135.38 33.024 135.337 33.4613 135.316 33.824C135.294 33.9307 135.284 34.1333 135.284 34.432C135.284 34.7307 135.23 34.9547 135.124 35.104C135.038 35.2533 134.857 35.328 134.58 35.328ZM126.9 30.272C127.838 30.1867 128.606 30.1333 129.204 30.112L131.476 29.952C131.518 29.4827 131.54 29.1413 131.54 28.928C131.54 28.6293 131.518 28.1173 131.476 27.392C131.476 27.2427 131.454 26.9973 131.411 26.656C131.39 26.3147 131.38 26.0053 131.38 25.728L131.156 20.64V17.472L130.772 10.112C130.772 9.77067 130.74 9.504 130.676 9.312C130.441 9.20533 130.057 9.152 129.524 9.152C129.054 9.152 128.606 9.184 128.18 9.248V14.272V16.704C128.116 19.6053 128.009 22.176 127.86 24.416C127.796 25.4613 127.657 26.5493 127.444 27.68C127.252 28.8107 127.07 29.6747 126.9 30.272ZM141.774 32.512C141.176 32.512 140.622 32.3733 140.11 32.096C139.619 31.8187 139.192 31.4453 138.83 30.976C138.51 30.528 138.222 29.9627 137.966 29.28C137.71 28.576 137.518 27.8507 137.39 27.104C137.134 25.8453 136.963 24.192 136.878 22.144C136.856 21.6533 136.846 20.8107 136.846 19.616V17.6C136.867 17.024 136.878 16.4267 136.878 15.808C136.878 14.5493 136.952 13.5573 137.102 12.832C137.038 12.512 137.006 12.1813 137.006 11.84C137.006 10.56 137.486 9.52533 138.446 8.736C139.406 7.94666 140.622 7.552 142.094 7.552C142.648 7.552 143.16 7.70133 143.63 8C144.099 8.29866 144.334 8.672 144.334 9.12C144.334 9.33333 144.248 9.504 144.078 9.632C143.907 9.76 143.694 9.824 143.438 9.824C143.224 9.824 142.99 9.792 142.734 9.728C142.499 9.664 142.35 9.568 142.286 9.44H141.87V9.376C141.08 9.376 140.419 9.54667 139.886 9.888C139.502 10.1653 139.203 10.624 138.99 11.264C138.904 11.4987 138.84 11.7973 138.798 12.16C138.755 12.5227 138.734 12.8533 138.734 13.152C138.712 13.3227 138.702 13.664 138.702 14.176L138.766 15.296L138.798 16.384C138.798 16.704 138.755 17.0773 138.67 17.504C138.563 18.0373 138.51 18.4107 138.51 18.624V19.392C138.51 20.224 138.542 21.3653 138.606 22.816C138.627 24.032 138.766 25.248 139.022 26.464C139.214 27.5947 139.576 28.5547 140.11 29.344C140.622 30.1547 141.315 30.56 142.19 30.56C142.552 30.56 143 30.368 143.534 29.984C144.11 29.6 144.515 29.408 144.75 29.408C145.048 29.408 145.358 29.568 145.678 29.888C145.678 30.6773 145.379 31.2853 144.782 31.712C144.227 32.096 143.566 32.3413 142.798 32.448C142.371 32.4907 142.03 32.512 141.774 32.512ZM150.539 32.224C150.219 32.224 149.963 32.0747 149.771 31.776C149.6 31.456 149.515 31.072 149.515 30.624C149.515 29.92 149.557 29.056 149.643 28.032L149.707 27.2L149.771 25.504C149.771 24.7573 149.696 23.0933 149.547 20.512C149.397 17.9307 149.323 16.2667 149.323 15.52C149.323 15.456 149.323 15.3387 149.323 15.168C149.344 14.976 149.355 14.688 149.355 14.304C149.376 13.8773 149.387 13.3547 149.387 12.736C149.387 11.1787 149.28 10.1867 149.067 9.76C148.939 9.76 148.661 9.792 148.235 9.856L147.339 9.92C147.061 9.92 146.816 9.84533 146.603 9.696C146.389 9.52533 146.283 9.312 146.283 9.056C146.283 8.8 146.539 8.576 147.051 8.384C147.797 8.128 149.067 7.94666 150.859 7.84C151.584 7.79733 152.021 7.776 152.171 7.776C152.427 7.776 152.661 7.86133 152.875 8.032C153.088 8.20267 153.195 8.416 153.195 8.672C153.195 8.928 153.099 9.14133 152.907 9.312C152.736 9.46133 152.512 9.536 152.235 9.536L151.659 9.504C151.488 9.48267 151.296 9.472 151.083 9.472H150.763C150.912 10.9227 150.987 12.2347 150.987 13.408L150.955 15.456C150.933 16.0747 150.923 16.768 150.923 17.536C150.923 18.56 150.965 19.7867 151.051 21.216C151.157 22.9867 151.211 24.2133 151.211 24.896C151.211 25.7067 151.253 26.6667 151.339 27.776C151.424 28.9067 151.467 29.8667 151.467 30.656C151.467 31.7013 151.157 32.224 150.539 32.224ZM158.018 32.256C157.036 32.256 156.546 31.9893 156.546 31.456L156.61 27.52L156.674 23.584C156.674 22.1547 156.642 19.9893 156.578 17.088C156.514 14.208 156.482 12.0427 156.482 10.592V10.4C156.482 9.84533 156.535 9.33333 156.642 8.864C156.77 8.288 157.111 8 157.666 8C159.159 8 160.343 8.48 161.218 9.44C162.092 10.4 162.53 11.6693 162.53 13.248C162.53 14.208 162.274 15.2107 161.762 16.256C161.25 17.3013 160.642 18.08 159.938 18.592C161.175 19.424 162.082 20.5013 162.658 21.824C163.255 23.1253 163.554 24.5653 163.554 26.144C163.554 26.8907 163.298 27.8187 162.786 28.928C162.167 30.2507 161.324 31.2 160.258 31.776C159.618 32.096 158.914 32.256 158.146 32.256H158.018ZM158.338 18.112C158.892 17.984 159.362 17.5253 159.746 16.736C160.066 16.1387 160.364 15.4133 160.642 14.56C160.706 14.3253 160.812 14.0267 160.962 13.664V12.544C160.962 11.904 160.727 11.2853 160.258 10.688C159.788 10.0907 159.255 9.792 158.658 9.792C158.359 9.792 158.21 10.1227 158.21 10.784C158.21 12.192 158.231 13.4507 158.274 14.56L158.338 18.112ZM158.466 30.592C159.511 30.4427 160.343 29.9627 160.962 29.152C161.58 28.3413 161.89 27.3707 161.89 26.24C161.89 25.2587 161.804 24.3627 161.634 23.552C161.484 22.72 161.282 22.0907 161.026 21.664C160.791 21.2587 160.556 20.9173 160.322 20.64C160.087 20.3627 159.884 20.1813 159.714 20.096L159.458 20H158.306C158.412 22.4533 158.466 25.984 158.466 30.592ZM167.632 32.192C167.334 32.192 167.099 32.1067 166.928 31.936C166.779 31.744 166.726 31.5093 166.768 31.232L167.952 27.008C167.974 26.9227 167.984 26.8053 167.984 26.656C167.984 26.5067 167.974 26.4 167.952 26.336L167.76 25.504C167.696 25.2267 167.59 24.7787 167.44 24.16C167.312 23.52 167.206 22.9547 167.12 22.464C166.971 21.8027 166.736 20.416 166.416 18.304C166.096 16.1707 165.819 14.2613 165.584 12.576L165.424 11.584C165.19 10.2613 165.072 9.344 165.072 8.832C165.072 8.40533 165.126 8.128 165.232 8C165.339 7.89333 165.499 7.84 165.712 7.84C165.883 7.84 166.054 7.872 166.224 7.936C166.416 7.97867 166.566 8.04266 166.672 8.128C166.8 8.256 166.864 8.46933 166.864 8.768L166.832 9.408C166.832 9.51467 166.96 10.2933 167.216 11.744L167.536 13.824C167.515 14.4427 167.536 15.072 167.6 15.712C167.686 16.352 167.814 17.12 167.984 18.016C168.027 18.1867 168.07 18.4 168.112 18.656C168.24 19.4027 168.368 20.48 168.496 21.888C168.518 22.144 168.55 22.4427 168.592 22.784C168.635 23.1253 168.667 23.3813 168.688 23.552C168.902 22.464 169.083 21.152 169.232 19.616C169.232 19.4453 169.254 19.2107 169.296 18.912C169.424 17.6533 169.574 15.84 169.744 13.472C169.787 13.1093 169.83 12.4587 169.872 11.52L169.936 10.368C169.979 10.0693 170 9.78133 170 9.504C170 9.44 170 9.29067 170 9.056C170.022 8.8 170.054 8.58667 170.096 8.416C170.139 8.24533 170.203 8.10666 170.288 8C170.416 7.808 170.64 7.712 170.96 7.712C171.344 7.712 171.664 7.81867 171.92 8.032C172.07 8.16 172.144 8.37333 172.144 8.672C172.144 8.864 172.134 9.04533 172.112 9.216C172.091 9.36533 172.07 9.504 172.048 9.632C171.92 10.7413 171.782 12.0747 171.632 13.632L171.248 17.184C171.184 17.6747 171.088 18.4533 170.96 19.52C170.64 22.464 170.352 24.5973 170.096 25.92C170.011 26.4747 169.798 27.456 169.456 28.864C169.115 30.272 168.902 31.0827 168.816 31.296C168.752 31.552 168.614 31.7653 168.4 31.936C168.187 32.1067 167.931 32.192 167.632 32.192Z" fill="currentColor"></path>
	<defs>
		<clipPath id="clip0_1922_127780_f">
			<rect width="45" height="40" fill="white" transform="matrix(-1 0 0 1 45 0)"></rect>
		</clipPath>
	</defs>
</svg>
