<svg width="32" height="32" viewBox="0 0 32 32" fill="none" xmlns="http://www.w3.org/2000/svg">
<path d="M23.585 10.1128L20.8263 6.43442C20.0833 5.44377 18.6958 5.20611 17.6655 5.893L11.2539 10.1674" stroke="#3CB18D" stroke-width="2" stroke-linecap="round" stroke-linejoin="round"/>
<path fill-rule="evenodd" clip-rule="evenodd" d="M23.5845 15.417H26.501C27.1453 15.417 27.6676 15.9393 27.6676 16.5836V20.0834C27.6676 20.7277 27.1453 21.25 26.501 21.25H23.5845C21.9737 21.25 20.668 19.9442 20.668 18.3335V18.3335C20.668 16.7228 21.9737 15.417 23.5845 15.417V15.417Z" stroke="#3CB18D" stroke-width="2" stroke-linecap="round" stroke-linejoin="round"/>
<path d="M26.5007 15.4167V13.0835C26.5007 11.4728 25.195 10.167 23.5842 10.167H8.41845C6.80771 10.167 5.50195 11.4728 5.50195 13.0835V23.5829C5.50195 25.1936 6.80771 26.4994 8.41845 26.4994H23.5842C25.195 26.4994 26.5007 25.1936 26.5007 23.5829V21.2497" stroke="#3CB18D" stroke-width="2" stroke-linecap="round" stroke-linejoin="round"/>
</svg>
